<svg width="244" height="101" viewBox="0 0 244 101" fill="none" xmlns="http://www.w3.org/2000/svg">
<rect y="1" width="244" height="100" rx="18" fill="url(#paint0_linear_1_8)"/>
<g filter="url(#filter0_f_1_8)">
<rect x="4" y="4" width="236" height="92" rx="16" fill="url(#paint1_linear_1_8)"/>
</g>
<g filter="url(#filter1_ddf_1_8)">
<mask id="path-3-outside-1_1_8" maskUnits="userSpaceOnUse" x="32" y="38" width="180" height="44" fill="black">
<rect fill="white" x="32" y="38" width="180" height="44"/>
<path d="M71.9665 60.354C71.9665 63.1258 71.5116 65.7495 70.6018 68.2251C69.7131 70.7007 68.4224 72.9012 66.7297 74.8267C65.0581 76.731 63.048 78.2332 60.6994 79.3335C58.3508 80.4126 55.7377 80.9521 52.8601 80.9521C48.988 80.9521 45.6237 80.0212 42.7673 78.1592C39.932 76.276 37.7315 73.7793 36.1657 70.6689C34.6 67.5586 33.8171 64.1414 33.8171 60.4175C33.8171 56.6724 34.6423 53.2764 36.2927 50.2295C37.9642 47.1615 40.26 44.7282 43.1799 42.9297C46.0998 41.1312 49.4746 40.2319 53.3044 40.2319C56.1185 40.2319 58.6682 40.7715 60.9533 41.8506C63.2385 42.9085 65.1957 44.3791 66.8249 46.2622C68.4753 48.1242 69.7448 50.2612 70.6335 52.6733C71.5222 55.0854 71.9665 57.6457 71.9665 60.354ZM65.4284 60.7349C65.4284 58.5978 65.2486 56.4396 64.8889 54.2603C64.5503 52.0809 63.9261 50.092 63.0163 48.2935C62.1065 46.4738 60.8158 45.0138 59.1442 43.9136C57.4939 42.8133 55.3462 42.2632 52.7014 42.2632C50.2681 42.2632 48.2474 42.8239 46.6394 43.9453C45.0524 45.0456 43.8041 46.495 42.8942 48.2935C41.9844 50.092 41.3391 52.0386 40.9582 54.1333C40.5985 56.228 40.4187 58.2699 40.4187 60.2588C40.4187 62.2054 40.6091 64.2578 40.9899 66.416C41.3708 68.5742 42.0161 70.5949 42.926 72.478C43.857 74.3612 45.1159 75.8952 46.7028 77.0801C48.3109 78.2438 50.3316 78.8257 52.7648 78.8257C55.3251 78.8257 57.4304 78.2861 59.0808 77.207C60.7312 76.1279 62.0113 74.6997 62.9211 72.9224C63.8521 71.145 64.4974 69.1984 64.8571 67.0825C65.238 64.9455 65.4284 62.8296 65.4284 60.7349ZM90.1678 75.1758H91.2786C90.8766 76.6146 90.0831 77.9264 88.8982 79.1113C87.7134 80.2962 86.3274 80.8887 84.7405 80.8887C83.3652 80.8887 82.2967 80.5607 81.535 79.9048C80.7732 79.2277 80.2443 78.3602 79.9481 77.3022C79.6518 76.2231 79.5037 75.0911 79.5037 73.9062V55.6567H75.346V54.7998C76.679 54.292 77.8533 53.5091 78.8689 52.4512C79.9057 51.3721 80.805 50.1766 81.5667 48.8647C82.3284 47.5317 82.9632 46.2516 83.471 45.0244H84.3597V53.7207H90.5169V55.6567H84.3597V73.208C84.3597 73.7793 84.4231 74.4035 84.5501 75.0806C84.6771 75.7576 84.9204 76.3501 85.2801 76.8579C85.6398 77.3446 86.1793 77.5879 86.8987 77.5879C87.7662 77.5879 88.4539 77.3657 88.9617 76.9214C89.4695 76.4771 89.8716 75.8952 90.1678 75.1758ZM121.033 80H108.083V78.8892C109.797 78.8892 110.929 78.6141 111.479 78.064C112.03 77.4927 112.305 76.3501 112.305 74.6362V64.3213C112.305 62.9883 112.231 61.7293 112.082 60.5444C111.934 59.3384 111.564 58.3545 110.972 57.5928C110.4 56.8311 109.438 56.4502 108.083 56.4502C106.75 56.4502 105.523 56.8416 104.402 57.6245C103.302 58.4074 102.339 59.2643 101.514 60.1953V74.6362C101.514 76.3713 101.757 77.5138 102.244 78.064C102.73 78.6141 103.883 78.8892 105.703 78.8892V80H92.6903V78.8892C94.383 78.8892 95.4833 78.5824 95.9911 77.9688C96.4989 77.3551 96.7528 76.2443 96.7528 74.6362V46.8652C96.7528 45.6592 96.6365 44.6965 96.4037 43.9771C96.1921 43.2365 95.6632 42.8662 94.8168 42.8662C94.4571 42.8662 94.0974 42.9085 93.7377 42.9932C93.3992 43.0778 93.05 43.1836 92.6903 43.3105L92.246 42.3267L100.181 39.2163H101.514V58.418C102.529 56.8945 103.756 55.6038 105.195 54.5459C106.655 53.4668 108.337 52.9272 110.242 52.9272C111.913 52.9272 113.214 53.3081 114.145 54.0698C115.098 54.8104 115.775 55.7837 116.177 56.9897C116.6 58.1958 116.864 59.4865 116.97 60.8618C117.076 62.2371 117.129 63.549 117.129 64.7974V74.6362C117.129 76.2443 117.362 77.3551 117.827 77.9688C118.293 78.5824 119.361 78.8892 121.033 78.8892V80ZM145.518 69.7803L146.375 70.415C146.121 72.2135 145.507 73.9168 144.534 75.5249C143.561 77.1118 142.312 78.4025 140.789 79.397C139.266 80.3914 137.541 80.8887 135.616 80.8887C133.098 80.8887 130.982 80.2222 129.268 78.8892C127.575 77.535 126.295 75.8105 125.428 73.7158C124.56 71.5999 124.126 69.3994 124.126 67.1143C124.126 64.5964 124.571 62.2583 125.459 60.1001C126.348 57.9419 127.692 56.2069 129.49 54.895C131.289 53.5832 133.563 52.9272 136.314 52.9272C139.488 52.9272 141.953 53.9429 143.709 55.9741C145.486 57.9842 146.375 60.5339 146.375 63.623H128.221C128.221 65.5062 128.559 67.4211 129.236 69.3677C129.913 71.2931 130.961 72.9012 132.378 74.1919C133.796 75.4826 135.605 76.1279 137.806 76.1279C139.816 76.1279 141.424 75.5249 142.63 74.3188C143.857 73.0916 144.82 71.5788 145.518 69.7803ZM128.221 61.9727H140.376C140.376 60.8089 140.175 59.6981 139.773 58.6401C139.393 57.561 138.779 56.6829 137.933 56.0059C137.107 55.3288 136.028 54.9902 134.695 54.9902C132.728 54.9902 131.194 55.7096 130.093 57.1484C128.993 58.5872 128.369 60.1953 128.221 61.9727ZM163.878 80H150.929V78.8892C152.748 78.8892 153.859 78.4766 154.261 77.6514C154.663 76.805 154.864 75.6095 154.864 74.0649V47.6587C154.864 46.3892 154.748 45.2889 154.515 44.3579C154.304 43.4058 153.711 42.9297 152.738 42.9297C152.442 42.9297 152.145 42.972 151.849 43.0566C151.574 43.1201 151.267 43.2048 150.929 43.3105L150.484 42.3267L158.356 39.2163H159.625V74.0649C159.625 75.8211 159.858 77.0695 160.323 77.8101C160.789 78.5295 161.974 78.8892 163.878 78.8892V80ZM180.905 80H167.956V78.8892C169.775 78.8892 170.886 78.4766 171.288 77.6514C171.69 76.805 171.891 75.6095 171.891 74.0649V47.6587C171.891 46.3892 171.775 45.2889 171.542 44.3579C171.331 43.4058 170.738 42.9297 169.765 42.9297C169.469 42.9297 169.172 42.972 168.876 43.0566C168.601 43.1201 168.294 43.2048 167.956 43.3105L167.511 42.3267L175.383 39.2163H176.652V74.0649C176.652 75.8211 176.885 77.0695 177.35 77.8101C177.816 78.5295 179.001 78.8892 180.905 78.8892V80ZM210.215 66.3525C210.215 68.8916 209.686 71.272 208.628 73.4937C207.591 75.6942 206.11 77.4821 204.184 78.8574C202.259 80.2116 199.953 80.8887 197.265 80.8887C194.748 80.8887 192.547 80.2327 190.664 78.9209C188.781 77.609 187.321 75.9058 186.284 73.811C185.268 71.7163 184.761 69.484 184.761 67.1143C184.761 64.6598 185.279 62.3535 186.316 60.1953C187.374 58.0371 188.855 56.2915 190.759 54.9585C192.685 53.6043 194.949 52.9272 197.551 52.9272C200.111 52.9272 202.333 53.5303 204.216 54.7363C206.12 55.9424 207.591 57.561 208.628 59.5923C209.686 61.6235 210.215 63.877 210.215 66.3525ZM204.851 68.606C204.851 67.3364 204.724 65.9188 204.47 64.353C204.216 62.7873 203.772 61.2744 203.137 59.8145C202.523 58.3545 201.688 57.159 200.63 56.228C199.572 55.2759 198.228 54.7998 196.599 54.7998C194.864 54.7998 193.531 55.3394 192.6 56.4185C191.69 57.4976 191.055 58.8094 190.696 60.354C190.357 61.8774 190.188 63.3374 190.188 64.7339C190.188 65.9823 190.315 67.3999 190.569 68.9868C190.844 70.5737 191.288 72.1077 191.902 73.5889C192.536 75.07 193.383 76.2972 194.441 77.2705C195.499 78.2438 196.832 78.7305 198.44 78.7305C200.281 78.7305 201.656 78.1909 202.566 77.1118C203.497 76.0116 204.11 74.6785 204.407 73.1128C204.703 71.547 204.851 70.0448 204.851 68.606Z"/>
</mask>
<path d="M71.9665 60.354C71.9665 63.1258 71.5116 65.7495 70.6018 68.2251C69.7131 70.7007 68.4224 72.9012 66.7297 74.8267C65.0581 76.731 63.048 78.2332 60.6994 79.3335C58.3508 80.4126 55.7377 80.9521 52.8601 80.9521C48.988 80.9521 45.6237 80.0212 42.7673 78.1592C39.932 76.276 37.7315 73.7793 36.1657 70.6689C34.6 67.5586 33.8171 64.1414 33.8171 60.4175C33.8171 56.6724 34.6423 53.2764 36.2927 50.2295C37.9642 47.1615 40.26 44.7282 43.1799 42.9297C46.0998 41.1312 49.4746 40.2319 53.3044 40.2319C56.1185 40.2319 58.6682 40.7715 60.9533 41.8506C63.2385 42.9085 65.1957 44.3791 66.8249 46.2622C68.4753 48.1242 69.7448 50.2612 70.6335 52.6733C71.5222 55.0854 71.9665 57.6457 71.9665 60.354ZM65.4284 60.7349C65.4284 58.5978 65.2486 56.4396 64.8889 54.2603C64.5503 52.0809 63.9261 50.092 63.0163 48.2935C62.1065 46.4738 60.8158 45.0138 59.1442 43.9136C57.4939 42.8133 55.3462 42.2632 52.7014 42.2632C50.2681 42.2632 48.2474 42.8239 46.6394 43.9453C45.0524 45.0456 43.8041 46.495 42.8942 48.2935C41.9844 50.092 41.3391 52.0386 40.9582 54.1333C40.5985 56.228 40.4187 58.2699 40.4187 60.2588C40.4187 62.2054 40.6091 64.2578 40.9899 66.416C41.3708 68.5742 42.0161 70.5949 42.926 72.478C43.857 74.3612 45.1159 75.8952 46.7028 77.0801C48.3109 78.2438 50.3316 78.8257 52.7648 78.8257C55.3251 78.8257 57.4304 78.2861 59.0808 77.207C60.7312 76.1279 62.0113 74.6997 62.9211 72.9224C63.8521 71.145 64.4974 69.1984 64.8571 67.0825C65.238 64.9455 65.4284 62.8296 65.4284 60.7349ZM90.1678 75.1758H91.2786C90.8766 76.6146 90.0831 77.9264 88.8982 79.1113C87.7134 80.2962 86.3274 80.8887 84.7405 80.8887C83.3652 80.8887 82.2967 80.5607 81.535 79.9048C80.7732 79.2277 80.2443 78.3602 79.9481 77.3022C79.6518 76.2231 79.5037 75.0911 79.5037 73.9062V55.6567H75.346V54.7998C76.679 54.292 77.8533 53.5091 78.8689 52.4512C79.9057 51.3721 80.805 50.1766 81.5667 48.8647C82.3284 47.5317 82.9632 46.2516 83.471 45.0244H84.3597V53.7207H90.5169V55.6567H84.3597V73.208C84.3597 73.7793 84.4231 74.4035 84.5501 75.0806C84.6771 75.7576 84.9204 76.3501 85.2801 76.8579C85.6398 77.3446 86.1793 77.5879 86.8987 77.5879C87.7662 77.5879 88.4539 77.3657 88.9617 76.9214C89.4695 76.4771 89.8716 75.8952 90.1678 75.1758ZM121.033 80H108.083V78.8892C109.797 78.8892 110.929 78.6141 111.479 78.064C112.03 77.4927 112.305 76.3501 112.305 74.6362V64.3213C112.305 62.9883 112.231 61.7293 112.082 60.5444C111.934 59.3384 111.564 58.3545 110.972 57.5928C110.4 56.8311 109.438 56.4502 108.083 56.4502C106.75 56.4502 105.523 56.8416 104.402 57.6245C103.302 58.4074 102.339 59.2643 101.514 60.1953V74.6362C101.514 76.3713 101.757 77.5138 102.244 78.064C102.73 78.6141 103.883 78.8892 105.703 78.8892V80H92.6903V78.8892C94.383 78.8892 95.4833 78.5824 95.9911 77.9688C96.4989 77.3551 96.7528 76.2443 96.7528 74.6362V46.8652C96.7528 45.6592 96.6365 44.6965 96.4037 43.9771C96.1921 43.2365 95.6632 42.8662 94.8168 42.8662C94.4571 42.8662 94.0974 42.9085 93.7377 42.9932C93.3992 43.0778 93.05 43.1836 92.6903 43.3105L92.246 42.3267L100.181 39.2163H101.514V58.418C102.529 56.8945 103.756 55.6038 105.195 54.5459C106.655 53.4668 108.337 52.9272 110.242 52.9272C111.913 52.9272 113.214 53.3081 114.145 54.0698C115.098 54.8104 115.775 55.7837 116.177 56.9897C116.6 58.1958 116.864 59.4865 116.97 60.8618C117.076 62.2371 117.129 63.549 117.129 64.7974V74.6362C117.129 76.2443 117.362 77.3551 117.827 77.9688C118.293 78.5824 119.361 78.8892 121.033 78.8892V80ZM145.518 69.7803L146.375 70.415C146.121 72.2135 145.507 73.9168 144.534 75.5249C143.561 77.1118 142.312 78.4025 140.789 79.397C139.266 80.3914 137.541 80.8887 135.616 80.8887C133.098 80.8887 130.982 80.2222 129.268 78.8892C127.575 77.535 126.295 75.8105 125.428 73.7158C124.56 71.5999 124.126 69.3994 124.126 67.1143C124.126 64.5964 124.571 62.2583 125.459 60.1001C126.348 57.9419 127.692 56.2069 129.49 54.895C131.289 53.5832 133.563 52.9272 136.314 52.9272C139.488 52.9272 141.953 53.9429 143.709 55.9741C145.486 57.9842 146.375 60.5339 146.375 63.623H128.221C128.221 65.5062 128.559 67.4211 129.236 69.3677C129.913 71.2931 130.961 72.9012 132.378 74.1919C133.796 75.4826 135.605 76.1279 137.806 76.1279C139.816 76.1279 141.424 75.5249 142.63 74.3188C143.857 73.0916 144.82 71.5788 145.518 69.7803ZM128.221 61.9727H140.376C140.376 60.8089 140.175 59.6981 139.773 58.6401C139.393 57.561 138.779 56.6829 137.933 56.0059C137.107 55.3288 136.028 54.9902 134.695 54.9902C132.728 54.9902 131.194 55.7096 130.093 57.1484C128.993 58.5872 128.369 60.1953 128.221 61.9727ZM163.878 80H150.929V78.8892C152.748 78.8892 153.859 78.4766 154.261 77.6514C154.663 76.805 154.864 75.6095 154.864 74.0649V47.6587C154.864 46.3892 154.748 45.2889 154.515 44.3579C154.304 43.4058 153.711 42.9297 152.738 42.9297C152.442 42.9297 152.145 42.972 151.849 43.0566C151.574 43.1201 151.267 43.2048 150.929 43.3105L150.484 42.3267L158.356 39.2163H159.625V74.0649C159.625 75.8211 159.858 77.0695 160.323 77.8101C160.789 78.5295 161.974 78.8892 163.878 78.8892V80ZM180.905 80H167.956V78.8892C169.775 78.8892 170.886 78.4766 171.288 77.6514C171.69 76.805 171.891 75.6095 171.891 74.0649V47.6587C171.891 46.3892 171.775 45.2889 171.542 44.3579C171.331 43.4058 170.738 42.9297 169.765 42.9297C169.469 42.9297 169.172 42.972 168.876 43.0566C168.601 43.1201 168.294 43.2048 167.956 43.3105L167.511 42.3267L175.383 39.2163H176.652V74.0649C176.652 75.8211 176.885 77.0695 177.35 77.8101C177.816 78.5295 179.001 78.8892 180.905 78.8892V80ZM210.215 66.3525C210.215 68.8916 209.686 71.272 208.628 73.4937C207.591 75.6942 206.11 77.4821 204.184 78.8574C202.259 80.2116 199.953 80.8887 197.265 80.8887C194.748 80.8887 192.547 80.2327 190.664 78.9209C188.781 77.609 187.321 75.9058 186.284 73.811C185.268 71.7163 184.761 69.484 184.761 67.1143C184.761 64.6598 185.279 62.3535 186.316 60.1953C187.374 58.0371 188.855 56.2915 190.759 54.9585C192.685 53.6043 194.949 52.9272 197.551 52.9272C200.111 52.9272 202.333 53.5303 204.216 54.7363C206.12 55.9424 207.591 57.561 208.628 59.5923C209.686 61.6235 210.215 63.877 210.215 66.3525ZM204.851 68.606C204.851 67.3364 204.724 65.9188 204.47 64.353C204.216 62.7873 203.772 61.2744 203.137 59.8145C202.523 58.3545 201.688 57.159 200.63 56.228C199.572 55.2759 198.228 54.7998 196.599 54.7998C194.864 54.7998 193.531 55.3394 192.6 56.4185C191.69 57.4976 191.055 58.8094 190.696 60.354C190.357 61.8774 190.188 63.3374 190.188 64.7339C190.188 65.9823 190.315 67.3999 190.569 68.9868C190.844 70.5737 191.288 72.1077 191.902 73.5889C192.536 75.07 193.383 76.2972 194.441 77.2705C195.499 78.2438 196.832 78.7305 198.44 78.7305C200.281 78.7305 201.656 78.1909 202.566 77.1118C203.497 76.0116 204.11 74.6785 204.407 73.1128C204.703 71.547 204.851 70.0448 204.851 68.606Z" fill="white"/>
<path d="M70.6018 68.2251L69.6631 67.8801L69.6606 67.8872L70.6018 68.2251ZM66.7297 74.8267L65.9786 74.1664L65.9781 74.167L66.7297 74.8267ZM60.6994 79.3335L61.1169 80.2422L61.1236 80.2391L60.6994 79.3335ZM42.7673 78.1592L42.214 78.9922L42.2212 78.9969L42.7673 78.1592ZM36.1657 70.6689L35.2725 71.1186L36.1657 70.6689ZM36.2927 50.2295L35.4145 49.7511L35.4134 49.7532L36.2927 50.2295ZM60.9533 41.8506L60.5263 42.7549L60.5332 42.7581L60.9533 41.8506ZM66.8249 46.2622L66.0686 46.9165L66.0766 46.9255L66.8249 46.2622ZM64.8889 54.2603L63.9007 54.4138L63.9022 54.4231L64.8889 54.2603ZM63.0163 48.2935L62.1219 48.7407L62.124 48.7449L63.0163 48.2935ZM59.1442 43.9136L58.5895 44.7456L58.5944 44.7489L59.1442 43.9136ZM46.6394 43.9453L47.2091 44.7671L47.2114 44.7656L46.6394 43.9453ZM42.8942 48.2935L43.7866 48.7449L42.8942 48.2935ZM40.9582 54.1333L39.9743 53.9544L39.9726 53.9641L40.9582 54.1333ZM42.926 72.478L42.0255 72.9131L42.0295 72.9212L42.926 72.478ZM46.7028 77.0801L46.1045 77.8814L46.1105 77.8858L46.1166 77.8902L46.7028 77.0801ZM62.9211 72.9224L62.0352 72.4583L62.0309 72.4667L62.9211 72.9224ZM64.8571 67.0825L63.8726 66.9071L63.8713 66.9149L64.8571 67.0825ZM70.9665 60.354C70.9665 63.0142 70.5303 65.5206 69.6631 67.8801L71.5404 68.5701C72.4929 65.9784 72.9665 63.2375 72.9665 60.354H70.9665ZM69.6606 67.8872C68.8133 70.2475 67.5861 72.338 65.9786 74.1664L67.4807 75.4869C69.2587 73.4645 70.6129 71.1539 71.543 68.563L69.6606 67.8872ZM65.9781 74.167C64.3998 75.9651 62.502 77.3848 60.2752 78.4279L61.1236 80.2391C63.5941 79.0817 65.7165 77.4968 67.4812 75.4863L65.9781 74.167ZM60.2819 78.4248C58.0784 79.4372 55.61 79.9521 52.8601 79.9521V81.9521C55.8653 81.9521 58.6232 81.3879 61.1169 80.2422L60.2819 78.4248ZM52.8601 79.9521C49.1548 79.9521 45.9861 79.0637 43.3134 77.3214L42.2212 78.9969C45.2614 80.9787 48.8212 81.9521 52.8601 81.9521V79.9521ZM43.3206 77.3262C40.6334 75.5414 38.5485 73.1783 37.0589 70.2193L35.2725 71.1186C36.9145 74.3803 39.2306 77.0107 42.214 78.9922L43.3206 77.3262ZM37.0589 70.2193C35.5682 67.258 34.8171 63.9964 34.8171 60.4175H32.8171C32.8171 64.2865 33.6317 67.8592 35.2725 71.1186L37.0589 70.2193ZM34.8171 60.4175C34.8171 56.8249 35.6071 53.5947 37.172 50.7058L35.4134 49.7532C33.6775 52.958 32.8171 56.5198 32.8171 60.4175H34.8171ZM37.1708 50.7079C38.7606 47.7899 40.9357 45.4865 43.7043 43.7811L42.6554 42.0782C39.5842 43.9699 37.1678 46.533 35.4146 49.7511L37.1708 50.7079ZM43.7043 43.7811C46.4486 42.0908 49.6376 41.2319 53.3044 41.2319V39.2319C49.3117 39.2319 45.751 40.1716 42.6554 42.0782L43.7043 43.7811ZM53.3044 41.2319C55.9878 41.2319 58.3892 41.7456 60.5263 42.7548L61.3803 40.9463C58.9472 39.7973 56.2493 39.2319 53.3044 39.2319V41.2319ZM60.5332 42.7581C62.6911 43.7571 64.5333 45.1419 66.0687 46.9165L67.5812 45.6079C65.858 43.6163 63.7858 42.06 61.3734 40.9431L60.5332 42.7581ZM66.0766 46.9255C67.6417 48.6913 68.8481 50.7198 69.6952 53.019L71.5718 52.3276C70.6416 49.8027 69.3089 47.5571 67.5733 45.5989L66.0766 46.9255ZM69.6952 53.019C70.5409 55.3146 70.9665 57.7573 70.9665 60.354H72.9665C72.9665 57.5341 72.5034 54.8563 71.5718 52.3276L69.6952 53.019ZM66.4284 60.7349C66.4284 58.5415 66.2438 56.3288 65.8755 54.0974L63.9022 54.4231C64.2533 56.5504 64.4284 58.6542 64.4284 60.7349H66.4284ZM65.877 54.1068C65.5239 51.8334 64.8701 49.7426 63.9086 47.842L62.124 48.7449C62.9822 50.4413 63.5768 52.3284 63.9007 54.4138L65.877 54.1068ZM63.9107 47.8462C62.9236 45.8719 61.5152 44.277 59.6941 43.0783L58.5944 44.7489C60.1164 45.7507 61.2894 47.0757 62.1219 48.7407L63.9107 47.8462ZM59.6989 43.0815C57.8378 41.8407 55.4791 41.2632 52.7014 41.2632V43.2632C55.2133 43.2632 57.1499 43.7859 58.5895 44.7456L59.6989 43.0815ZM52.7014 41.2632C50.1133 41.2632 47.8799 41.8611 46.0673 43.1251L47.2114 44.7656C48.615 43.7867 50.4229 43.2632 52.7014 43.2632V41.2632ZM46.0696 43.1235C44.34 44.3227 42.9834 45.9019 42.0019 47.842L43.7866 48.7449C44.6247 47.088 45.7649 45.7684 47.2091 44.7671L46.0696 43.1235ZM42.0019 47.842C41.0462 49.7312 40.3715 51.7703 39.9743 53.9544L41.9421 54.3122C42.3067 52.3069 42.9226 50.4527 43.7866 48.7449L42.0019 47.842ZM39.9726 53.9641C39.604 56.1109 39.4187 58.2094 39.4187 60.2588H41.4187C41.4187 58.3303 41.593 56.3452 41.9438 54.3025L39.9726 53.9641ZM39.4187 60.2588C39.4187 62.2704 39.6154 64.3813 40.0052 66.5898L41.9747 66.2422C41.6028 64.1344 41.4187 62.1404 41.4187 60.2588H39.4187ZM40.0052 66.5898C40.4012 68.8342 41.0739 70.9433 42.0256 72.9131L43.8264 72.043C42.9584 70.2465 42.3404 68.3142 41.9747 66.2422L40.0052 66.5898ZM42.0295 72.9212C43.026 74.9367 44.3838 76.5965 46.1045 77.8814L47.3011 76.2788C45.848 75.1938 44.688 73.7856 43.8224 72.0348L42.0295 72.9212ZM46.1166 77.8902C47.9306 79.203 50.1694 79.8257 52.7648 79.8257V77.8257C50.4938 77.8257 48.6912 77.2846 47.2891 76.27L46.1166 77.8902ZM52.7648 79.8257C55.4622 79.8257 57.7728 79.257 59.628 78.044L58.5335 76.3701C57.0879 77.3153 55.1879 77.8257 52.7648 77.8257V79.8257ZM59.628 78.044C61.4258 76.8685 62.8232 75.3081 63.8112 73.378L62.0309 72.4667C61.1993 74.0913 60.0365 75.3873 58.5335 76.3701L59.628 78.044ZM63.8069 73.3864C64.7899 71.5098 65.4669 69.4622 65.843 67.2501L63.8713 66.9149C63.5279 68.9346 62.9143 70.7802 62.0353 72.4584L63.8069 73.3864ZM65.8416 67.258C66.2324 65.0651 66.4284 62.8905 66.4284 60.7349H64.4284C64.4284 62.7687 64.2436 64.8258 63.8726 66.9071L65.8416 67.258ZM90.1678 75.1758V74.1758H89.4981L89.2431 74.795L90.1678 75.1758ZM91.2786 75.1758L92.2417 75.4449L92.5963 74.1758H91.2786V75.1758ZM81.535 79.9048L80.8706 80.6522L80.8765 80.6574L80.8824 80.6626L81.535 79.9048ZM79.9481 77.3022L78.9837 77.567L78.9851 77.5719L79.9481 77.3022ZM79.5037 55.6567H80.5037V54.6567H79.5037V55.6567ZM75.346 55.6567H74.346V56.6567H75.346V55.6567ZM75.346 54.7998L74.99 53.8653L74.346 54.1107V54.7998H75.346ZM78.8689 52.4512L78.1478 51.7583L78.1476 51.7586L78.8689 52.4512ZM81.5667 48.8647L82.4315 49.3669L82.4349 49.3609L81.5667 48.8647ZM83.471 45.0244V44.0244H82.8026L82.547 44.6421L83.471 45.0244ZM84.3597 45.0244H85.3597V44.0244H84.3597V45.0244ZM84.3597 53.7207H83.3597V54.7207H84.3597V53.7207ZM90.5169 53.7207H91.5169V52.7207H90.5169V53.7207ZM90.5169 55.6567V56.6567H91.5169V55.6567H90.5169ZM84.3597 55.6567V54.6567H83.3597V55.6567H84.3597ZM85.2801 76.8579L84.4641 77.4359L84.4699 77.4442L84.4759 77.4523L85.2801 76.8579ZM90.1678 76.1758H91.2786V74.1758H90.1678V76.1758ZM90.3155 74.9067C89.9652 76.1605 89.2695 77.3258 88.1911 78.4042L89.6054 79.8184C90.8967 78.5271 91.788 77.0687 92.2417 75.4449L90.3155 74.9067ZM88.1911 78.4042C87.1821 79.4132 86.0462 79.8887 84.7405 79.8887V81.8887C86.6087 81.8887 88.2446 81.1792 89.6054 79.8184L88.1911 78.4042ZM84.7405 79.8887C83.5164 79.8887 82.7104 79.5973 82.1875 79.147L80.8824 80.6626C81.8829 81.5241 83.214 81.8887 84.7405 81.8887V79.8887ZM82.1993 79.1574C81.5921 78.6176 81.1598 77.921 80.911 77.0326L78.9851 77.5719C79.3288 78.7994 79.9544 79.8378 80.8706 80.6522L82.1993 79.1574ZM80.9124 77.0375C80.6412 76.0496 80.5037 75.007 80.5037 73.9062H78.5037C78.5037 75.1753 78.6625 76.3967 78.9837 77.567L80.9124 77.0375ZM80.5037 73.9062V55.6567H78.5037V73.9062H80.5037ZM79.5037 54.6567H75.346V56.6567H79.5037V54.6567ZM76.346 55.6567V54.7998H74.346V55.6567H76.346ZM75.702 55.7343C77.1771 55.1723 78.4753 54.3052 79.5903 53.1437L78.1476 51.7586C77.2314 52.713 76.1809 53.4117 74.99 53.8653L75.702 55.7343ZM79.5901 53.144C80.6829 52.0065 81.6302 50.7469 82.4315 49.3669L80.7019 48.3626C79.9797 49.6063 79.1285 50.7376 78.1478 51.7583L79.5901 53.144ZM82.4349 49.3609C83.2145 47.9967 83.8688 46.6785 84.395 45.4068L82.547 44.6421C82.0576 45.8247 81.4424 47.0668 80.6985 48.3686L82.4349 49.3609ZM83.471 46.0244H84.3597V44.0244H83.471V46.0244ZM83.3597 45.0244V53.7207H85.3597V45.0244H83.3597ZM84.3597 54.7207H90.5169V52.7207H84.3597V54.7207ZM89.5169 53.7207V55.6567H91.5169V53.7207H89.5169ZM90.5169 54.6567H84.3597V56.6567H90.5169V54.6567ZM83.3597 55.6567V73.208H85.3597V55.6567H83.3597ZM83.3597 73.208C83.3597 73.8522 83.4311 74.539 83.5672 75.2649L85.533 74.8963C85.4152 74.268 85.3597 73.7064 85.3597 73.208H83.3597ZM83.5672 75.2649C83.7179 76.0684 84.0125 76.7984 84.4641 77.4359L86.0961 76.2799C85.8283 75.9018 85.6362 75.4469 85.533 74.8963L83.5672 75.2649ZM84.4759 77.4523C85.0611 78.244 85.9298 78.5879 86.8987 78.5879V76.5879C86.4289 76.5879 86.2185 76.4451 86.0843 76.2635L84.4759 77.4523ZM86.8987 78.5879C87.9375 78.5879 88.883 78.3191 89.6202 77.674L88.3032 76.1688C88.0248 76.4124 87.595 76.5879 86.8987 76.5879V78.5879ZM89.6202 77.674C90.2609 77.1134 90.7464 76.3969 91.0925 75.5565L89.2431 74.795C88.9967 75.3935 88.6782 75.8407 88.3032 76.1688L89.6202 77.674ZM121.033 80V81H122.033V80H121.033ZM108.083 80H107.083V81H108.083V80ZM108.083 78.8892V77.8892H107.083V78.8892H108.083ZM111.479 78.064L112.187 78.7711L112.193 78.7644L112.2 78.7576L111.479 78.064ZM112.082 60.5444L111.09 60.6663L111.09 60.6685L112.082 60.5444ZM110.972 57.5928L110.172 58.1928L110.177 58.1998L110.182 58.2067L110.972 57.5928ZM104.402 57.6245L103.829 56.8045L103.822 56.8097L104.402 57.6245ZM101.514 60.1953L100.765 59.532L100.514 59.8159V60.1953H101.514ZM105.703 78.8892H106.703V77.8892H105.703V78.8892ZM105.703 80V81H106.703V80H105.703ZM92.6903 80H91.6903V81H92.6903V80ZM92.6903 78.8892V77.8892H91.6903V78.8892H92.6903ZM95.9911 77.9688L95.2207 77.3312L95.9911 77.9688ZM96.4037 43.9771L95.4422 44.2518L95.4469 44.2684L95.4523 44.2849L96.4037 43.9771ZM93.7377 42.9932L93.5086 42.0197L93.4952 42.023L93.7377 42.9932ZM92.6903 43.3105L91.779 43.7221L92.157 44.5592L93.0232 44.2535L92.6903 43.3105ZM92.246 42.3267L91.881 41.3956L90.9017 41.7796L91.3346 42.7382L92.246 42.3267ZM100.181 39.2163V38.2163H99.9916L99.8156 38.2853L100.181 39.2163ZM101.514 39.2163H102.514V38.2163H101.514V39.2163ZM101.514 58.418H100.514V61.7207L102.346 58.9727L101.514 58.418ZM105.195 54.5459L105.788 55.3516L105.79 55.3501L105.195 54.5459ZM114.145 54.0698L113.512 54.8438L113.522 54.8516L113.531 54.8592L114.145 54.0698ZM116.177 56.9897L115.228 57.306L115.23 57.3134L115.233 57.3208L116.177 56.9897ZM121.033 78.8892H122.033V77.8892H121.033V78.8892ZM121.033 79H108.083V81H121.033V79ZM109.083 80V78.8892H107.083V80H109.083ZM108.083 79.8892C108.986 79.8892 109.784 79.8174 110.454 79.6546C111.116 79.4938 111.733 79.2251 112.187 78.7711L110.772 77.3569C110.676 77.453 110.452 77.5969 109.982 77.7111C109.52 77.8233 108.894 77.8892 108.083 77.8892V79.8892ZM112.2 78.7576C112.644 78.2966 112.91 77.6792 113.071 77.0126C113.233 76.3385 113.305 75.5395 113.305 74.6362H111.305C111.305 75.4468 111.239 76.0761 111.126 76.5445C111.011 77.0205 110.865 77.2601 110.759 77.3703L112.2 78.7576ZM113.305 74.6362V64.3213H111.305V74.6362H113.305ZM113.305 64.3213C113.305 62.9515 113.229 61.6509 113.075 60.4204L111.09 60.6685C111.233 61.8078 111.305 63.025 111.305 64.3213H113.305ZM113.075 60.4225C112.91 59.0831 112.49 57.9158 111.761 56.9788L110.182 58.2067C110.638 58.7932 110.958 59.5937 111.09 60.6663L113.075 60.4225ZM111.772 56.9928C110.941 55.8847 109.612 55.4502 108.083 55.4502V57.4502C109.264 57.4502 109.86 57.7774 110.172 58.1928L111.772 56.9928ZM108.083 55.4502C106.54 55.4502 105.114 55.9077 103.829 56.8046L104.974 58.4445C105.932 57.7755 106.961 57.4502 108.083 57.4502V55.4502ZM103.822 56.8097C102.665 57.6328 101.645 58.5397 100.765 59.532L102.262 60.8586C103.033 59.9889 103.938 59.1819 104.982 58.4393L103.822 56.8097ZM100.514 60.1953V74.6362H102.514V60.1953H100.514ZM100.514 74.6362C100.514 75.5435 100.577 76.3386 100.718 77.0027C100.856 77.6528 101.089 78.2676 101.495 78.7265L102.993 77.4014C102.912 77.3102 102.779 77.0787 102.674 76.5861C102.572 76.1076 102.514 75.464 102.514 74.6362H100.514ZM101.495 78.7265C101.935 79.2242 102.577 79.4971 103.241 79.6556C103.923 79.8181 104.752 79.8892 105.703 79.8892V77.8892C104.835 77.8892 104.177 77.8226 103.705 77.7102C103.216 77.5935 103.039 77.4539 102.993 77.4014L101.495 78.7265ZM104.703 78.8892V80H106.703V78.8892H104.703ZM105.703 79H92.6903V81H105.703V79ZM93.6903 80V78.8892H91.6903V80H93.6903ZM92.6903 79.8892C93.5883 79.8892 94.385 79.8088 95.0537 79.6223C95.7186 79.4369 96.3322 79.1251 96.7615 78.6063L95.2207 77.3312C95.1422 77.426 94.9518 77.5744 94.5165 77.6958C94.0849 77.8162 93.4851 77.8892 92.6903 77.8892V79.8892ZM96.7615 78.6063C97.5084 77.7038 97.7528 76.2773 97.7528 74.6362H95.7528C95.7528 76.2113 95.4894 77.0065 95.2207 77.3312L96.7615 78.6063ZM97.7528 74.6362V46.8652H95.7528V74.6362H97.7528ZM97.7528 46.8652C97.7528 45.6091 97.6334 44.5292 97.3552 43.6692L95.4523 44.2849C95.6396 44.8637 95.7528 45.7093 95.7528 46.8652H97.7528ZM97.3652 43.7023C97.2091 43.1557 96.9088 42.6656 96.4218 42.3247C95.9439 41.9902 95.382 41.8662 94.8168 41.8662V43.8662C95.098 43.8662 95.2237 43.9273 95.2748 43.9632C95.3168 43.9925 95.3868 44.0579 95.4422 44.2518L97.3652 43.7023ZM94.8168 41.8662C94.3779 41.8662 93.9414 41.9179 93.5087 42.0197L93.9667 43.9666C94.2534 43.8991 94.5363 43.8662 94.8168 43.8662V41.8662ZM93.4952 42.023C93.1235 42.1159 92.7442 42.2311 92.3575 42.3676L93.0232 44.2535C93.3559 44.1361 93.6749 44.0397 93.9802 43.9633L93.4952 42.023ZM93.6017 42.899L93.1574 41.9151L91.3346 42.7382L91.779 43.7221L93.6017 42.899ZM92.611 43.2577L100.546 40.1473L99.8156 38.2853L91.881 41.3956L92.611 43.2577ZM100.181 40.2163H101.514V38.2163H100.181V40.2163ZM100.514 39.2163V58.418H102.514V39.2163H100.514ZM102.346 58.9727C103.298 57.5437 104.445 56.3387 105.788 55.3515L104.603 53.7402C103.068 54.869 101.76 56.2453 100.682 57.8633L102.346 58.9727ZM105.79 55.3501C107.069 54.4046 108.54 53.9272 110.242 53.9272V51.9272C108.135 51.9272 106.242 52.5289 104.601 53.7417L105.79 55.3501ZM110.242 53.9272C111.771 53.9272 112.818 54.2761 113.512 54.8438L114.779 53.2959C113.611 52.3401 112.055 51.9272 110.242 51.9272V53.9272ZM113.531 54.8592C114.319 55.4718 114.885 56.2766 115.228 57.306L117.125 56.6735C116.664 55.2908 115.876 54.1489 114.759 53.2805L113.531 54.8592ZM115.233 57.3208C115.625 58.4386 115.873 59.6431 115.973 60.9385L117.967 60.7851C117.855 59.3299 117.574 57.953 117.12 56.6587L115.233 57.3208ZM115.973 60.9385C116.077 62.2909 116.129 63.5771 116.129 64.7974H118.129C118.129 63.5209 118.075 62.1834 117.967 60.7851L115.973 60.9385ZM116.129 64.7974V74.6362H118.129V64.7974H116.129ZM116.129 74.6362C116.129 76.2679 116.35 77.6769 117.03 78.5731L118.624 77.3644C118.373 77.0334 118.129 76.2207 118.129 74.6362H116.129ZM117.03 78.5731C117.44 79.1133 118.049 79.4327 118.702 79.6202C119.359 79.8088 120.145 79.8892 121.033 79.8892V77.8892C120.248 77.8892 119.665 77.8161 119.254 77.6979C118.838 77.5786 118.679 77.4378 118.624 77.3644L117.03 78.5731ZM120.033 78.8892V80H122.033V78.8892H120.033ZM145.518 69.7803L146.113 68.9767L145.06 68.1966L144.586 69.4184L145.518 69.7803ZM146.375 70.415L147.365 70.5548L147.448 69.9657L146.97 69.6115L146.375 70.415ZM144.534 75.5249L145.387 76.0477L145.39 76.0427L144.534 75.5249ZM129.268 78.8892L128.643 79.6701L128.654 79.6785L129.268 78.8892ZM125.428 73.7158L124.502 74.0952L124.504 74.0984L125.428 73.7158ZM129.49 54.895L128.901 54.0871L129.49 54.895ZM143.709 55.9741L142.952 56.6282L142.96 56.6365L143.709 55.9741ZM146.375 63.623V64.623H147.375V63.623H146.375ZM128.221 63.623V62.623H127.221V63.623H128.221ZM129.236 69.3677L128.292 69.6962L128.293 69.6994L129.236 69.3677ZM128.221 61.9727L127.224 61.8896L127.134 62.9727H128.221V61.9727ZM140.376 61.9727V62.9727H141.376V61.9727H140.376ZM139.773 58.6401L138.83 58.973L138.834 58.9842L138.839 58.9954L139.773 58.6401ZM137.933 56.0059L137.298 56.779L137.308 56.7867L137.933 56.0059ZM130.093 57.1484L129.299 56.541L130.093 57.1484ZM144.923 70.5838L145.78 71.2186L146.97 69.6115L146.113 68.9767L144.923 70.5838ZM145.385 70.2752C145.15 71.9353 144.585 73.5105 143.679 75.0071L145.39 76.0427C146.43 74.3231 147.092 72.4918 147.365 70.5548L145.385 70.2752ZM143.682 75.0021C142.784 76.4658 141.639 77.648 140.242 78.5596L141.336 80.2344C142.986 79.157 144.338 77.7578 145.387 76.0477L143.682 75.0021ZM140.242 78.5596C138.891 79.4416 137.359 79.8887 135.616 79.8887V81.8887C137.723 81.8887 139.64 81.3413 141.336 80.2344L140.242 78.5596ZM135.616 79.8887C133.283 79.8887 131.393 79.2752 129.882 78.0998L128.654 79.6785C130.571 81.1692 132.913 81.8887 135.616 81.8887V79.8887ZM129.893 78.1083C128.338 76.8644 127.158 75.2795 126.352 73.3332L124.504 74.0984C125.433 76.3416 126.813 78.2056 128.643 79.67L129.893 78.1083ZM126.353 73.3365C125.535 71.3409 125.126 69.2692 125.126 67.1143H123.126C123.126 69.5296 123.586 71.859 124.502 74.0952L126.353 73.3365ZM125.126 67.1143C125.126 64.7166 125.549 62.509 126.384 60.4808L124.535 59.7193C123.593 62.0076 123.126 64.4761 123.126 67.1143H125.126ZM126.384 60.4808C127.206 58.4846 128.437 56.9007 130.08 55.7029L128.901 54.0871C126.946 55.5131 125.49 57.3992 124.535 59.7193L126.384 60.4808ZM130.08 55.7029C131.67 54.5428 133.724 53.9272 136.314 53.9272V51.9272C133.402 51.9272 130.907 52.6236 128.901 54.0871L130.08 55.7029ZM136.314 53.9272C139.256 53.9272 141.421 54.8571 142.953 56.6282L144.465 55.3201C142.484 53.0286 139.72 51.9272 136.314 51.9272V53.9272ZM142.96 56.6365C144.551 58.4364 145.375 60.7386 145.375 63.623H147.375C147.375 60.3291 146.421 57.532 144.458 55.3117L142.96 56.6365ZM146.375 62.623H128.221V64.623H146.375V62.623ZM127.221 63.623C127.221 65.6281 127.581 67.6539 128.292 69.6962L130.181 69.0392C129.537 67.1882 129.221 65.3843 129.221 63.623H127.221ZM128.293 69.6994C129.021 71.7706 130.157 73.522 131.705 74.9313L133.052 73.4525C131.764 72.2804 130.806 70.8156 130.18 69.0359L128.293 69.6994ZM131.705 74.9313C133.334 76.4144 135.395 77.1279 137.806 77.1279V75.1279C135.815 75.1279 134.258 74.5508 133.052 73.4525L131.705 74.9313ZM137.806 77.1279C140.03 77.1279 141.91 76.4527 143.337 75.026L141.923 73.6117C140.937 74.5971 139.601 75.1279 137.806 75.1279V77.1279ZM143.337 75.026C144.673 73.6901 145.707 72.0556 146.45 70.1422L144.586 69.4184C143.932 71.1019 143.041 72.4932 141.923 73.6117L143.337 75.026ZM128.221 62.9727H140.376V60.9727H128.221V62.9727ZM141.376 61.9727C141.376 60.691 141.155 59.4595 140.708 58.2849L138.839 58.9954C139.196 59.9366 139.376 60.9268 139.376 61.9727H141.376ZM140.716 58.3073C140.277 57.0623 139.558 56.0254 138.557 55.225L137.308 56.7867C138 57.3405 138.508 58.0597 138.83 58.973L140.716 58.3073ZM138.567 55.2328C137.522 54.3754 136.201 53.9902 134.695 53.9902V55.9902C135.856 55.9902 136.693 56.2821 137.298 56.7789L138.567 55.2328ZM134.695 53.9902C132.447 53.9902 130.606 54.8311 129.299 56.541L130.888 57.7559C131.781 56.5882 133.008 55.9902 134.695 55.9902V53.9902ZM129.299 56.541C128.084 58.1292 127.388 59.9186 127.224 61.8896L129.217 62.0557C129.349 60.472 129.902 59.0453 130.888 57.7559L129.299 56.541ZM163.878 80V81H164.878V80H163.878ZM150.929 80H149.929V81H150.929V80ZM150.929 78.8892V77.8892H149.929V78.8892H150.929ZM154.261 77.6514L155.16 78.0894L155.165 78.0804L154.261 77.6514ZM154.515 44.3579L153.539 44.5748L153.542 44.5877L153.545 44.6004L154.515 44.3579ZM151.849 43.0566L152.074 44.031L152.099 44.0252L152.124 44.0182L151.849 43.0566ZM150.929 43.3105L150.017 43.7221L150.382 44.5291L151.227 44.265L150.929 43.3105ZM150.484 42.3267L150.117 41.3966L149.141 41.7822L149.573 42.7382L150.484 42.3267ZM158.356 39.2163V38.2163H158.165L157.988 38.2863L158.356 39.2163ZM159.625 39.2163H160.625V38.2163H159.625V39.2163ZM160.323 77.8101L159.477 78.3423L159.484 78.3533L160.323 77.8101ZM163.878 78.8892H164.878V77.8892H163.878V78.8892ZM163.878 79H150.929V81H163.878V79ZM151.929 80V78.8892H149.929V80H151.929ZM150.929 79.8892C151.901 79.8892 152.765 79.7808 153.475 79.5171C154.199 79.2483 154.817 78.7944 155.16 78.0893L153.362 77.2134C153.304 77.3335 153.166 77.4985 152.778 77.6423C152.378 77.7912 151.777 77.8892 150.929 77.8892V79.8892ZM155.165 78.0804C155.659 77.0403 155.864 75.6734 155.864 74.0649H153.864C153.864 75.5457 153.668 76.5697 153.358 77.2223L155.165 78.0804ZM155.864 74.0649V47.6587H153.864V74.0649H155.864ZM155.864 47.6587C155.864 46.332 155.743 45.1464 155.485 44.1154L153.545 44.6004C153.753 45.4314 153.864 46.4463 153.864 47.6587H155.864ZM155.491 44.141C155.35 43.5068 155.057 42.9237 154.539 42.5072C154.02 42.0905 153.387 41.9297 152.738 41.9297V43.9297C153.062 43.9297 153.212 44.0069 153.286 44.0663C153.36 44.1258 153.468 44.2568 153.539 44.5748L155.491 44.141ZM152.738 41.9297C152.345 41.9297 151.956 41.986 151.574 42.0951L152.124 44.0182C152.334 43.958 152.538 43.9297 152.738 43.9297V41.9297ZM151.624 42.0822C151.319 42.1527 150.987 42.2445 150.631 42.3561L151.227 44.265C151.547 44.165 151.829 44.0876 152.074 44.031L151.624 42.0822ZM151.84 42.899L151.396 41.9151L149.573 42.7382L150.017 43.7221L151.84 42.899ZM150.852 43.2567L158.723 40.1463L157.988 38.2863L150.117 41.3966L150.852 43.2567ZM158.356 40.2163H159.625V38.2163H158.356V40.2163ZM158.625 39.2163V74.0649H160.625V39.2163H158.625ZM158.625 74.0649C158.625 75.8538 158.852 77.3482 159.477 78.3422L161.17 77.2779C160.864 76.7908 160.625 75.7885 160.625 74.0649H158.625ZM159.484 78.3533C159.892 78.9835 160.551 79.3577 161.271 79.5763C161.994 79.7957 162.874 79.8892 163.878 79.8892V77.8892C162.977 77.8892 162.314 77.8028 161.852 77.6625C161.387 77.5214 161.221 77.356 161.163 77.2668L159.484 78.3533ZM162.878 78.8892V80H164.878V78.8892H162.878ZM180.905 80V81H181.905V80H180.905ZM167.956 80H166.956V81H167.956V80ZM167.956 78.8892V77.8892H166.956V78.8892H167.956ZM171.288 77.6514L172.187 78.0894L172.192 78.0804L171.288 77.6514ZM171.542 44.3579L170.566 44.5748L170.569 44.5877L170.572 44.6004L171.542 44.3579ZM168.876 43.0566L169.101 44.031L169.126 44.0252L169.151 44.0182L168.876 43.0566ZM167.956 43.3105L167.044 43.7221L167.409 44.5291L168.254 44.265L167.956 43.3105ZM167.511 42.3267L167.144 41.3966L166.168 41.7822L166.6 42.7382L167.511 42.3267ZM175.383 39.2163V38.2163H175.192L175.015 38.2863L175.383 39.2163ZM176.652 39.2163H177.652V38.2163H176.652V39.2163ZM177.35 77.8101L176.504 78.3423L176.511 78.3533L177.35 77.8101ZM180.905 78.8892H181.905V77.8892H180.905V78.8892ZM180.905 79H167.956V81H180.905V79ZM168.956 80V78.8892H166.956V80H168.956ZM167.956 79.8892C168.928 79.8892 169.792 79.7808 170.502 79.5171C171.225 79.2483 171.844 78.7944 172.187 78.0893L170.389 77.2134C170.331 77.3335 170.193 77.4985 169.805 77.6423C169.405 77.7912 168.804 77.8892 167.956 77.8892V79.8892ZM172.192 78.0804C172.686 77.0403 172.891 75.6734 172.891 74.0649H170.891C170.891 75.5457 170.695 76.5697 170.385 77.2223L172.192 78.0804ZM172.891 74.0649V47.6587H170.891V74.0649H172.891ZM172.891 47.6587C172.891 46.332 172.77 45.1464 172.512 44.1154L170.572 44.6004C170.78 45.4314 170.891 46.4463 170.891 47.6587H172.891ZM172.518 44.141C172.377 43.5068 172.084 42.9237 171.566 42.5072C171.047 42.0905 170.414 41.9297 169.765 41.9297V43.9297C170.089 43.9297 170.239 44.0069 170.313 44.0663C170.387 44.1258 170.495 44.2568 170.566 44.5748L172.518 44.141ZM169.765 41.9297C169.372 41.9297 168.983 41.986 168.601 42.0951L169.151 44.0182C169.361 43.958 169.565 43.9297 169.765 43.9297V41.9297ZM168.651 42.0822C168.346 42.1527 168.014 42.2445 167.657 42.3561L168.254 44.265C168.574 44.165 168.856 44.0876 169.101 44.031L168.651 42.0822ZM168.867 42.899L168.423 41.9151L166.6 42.7382L167.044 43.7221L168.867 42.899ZM167.879 43.2567L175.75 40.1463L175.015 38.2863L167.144 41.3966L167.879 43.2567ZM175.383 40.2163H176.652V38.2163H175.383V40.2163ZM175.652 39.2163V74.0649H177.652V39.2163H175.652ZM175.652 74.0649C175.652 75.8538 175.879 77.3482 176.504 78.3422L178.197 77.2779C177.891 76.7908 177.652 75.7885 177.652 74.0649H175.652ZM176.511 78.3533C176.918 78.9835 177.578 79.3577 178.298 79.5763C179.02 79.7957 179.901 79.8892 180.905 79.8892V77.8892C180.004 77.8892 179.341 77.8028 178.879 77.6625C178.414 77.5214 178.248 77.356 178.19 77.2668L176.511 78.3533ZM179.905 78.8892V80H181.905V78.8892H179.905ZM208.628 73.4937L207.725 73.0637L207.723 73.0674L208.628 73.4937ZM204.184 78.8574L204.76 79.6754L204.766 79.6712L204.184 78.8574ZM186.284 73.811L185.384 74.2473L185.388 74.2546L186.284 73.811ZM186.316 60.1953L185.418 59.7551L185.414 59.7623L186.316 60.1953ZM190.759 54.9585L191.333 55.7777L191.334 55.7765L190.759 54.9585ZM204.216 54.7363L203.677 55.5784L203.681 55.5811L204.216 54.7363ZM208.628 59.5923L207.737 60.0469L207.741 60.0542L208.628 59.5923ZM204.47 64.353L203.483 64.5131L204.47 64.353ZM203.137 59.8145L202.215 60.2019L202.22 60.2132L203.137 59.8145ZM200.63 56.228L199.961 56.9714L199.969 56.9787L200.63 56.228ZM192.6 56.4185L191.843 55.7652L191.835 55.7739L192.6 56.4185ZM190.696 60.354L189.722 60.1272L189.719 60.1371L190.696 60.354ZM190.569 68.9868L189.581 69.1448L189.583 69.1576L190.569 68.9868ZM191.902 73.5889L190.978 73.9716L190.983 73.9828L191.902 73.5889ZM194.441 77.2705L193.764 78.0064L194.441 77.2705ZM202.566 77.1118L201.802 76.4659L201.801 76.4672L202.566 77.1118ZM204.407 73.1128L203.424 72.9269L204.407 73.1128ZM209.215 66.3525C209.215 68.7477 208.717 70.9807 207.725 73.0637L209.531 73.9236C210.655 71.5633 211.215 69.0355 211.215 66.3525H209.215ZM207.723 73.0674C206.757 75.1178 205.385 76.7706 203.603 78.0437L204.766 79.6712C206.834 78.1936 208.425 76.2706 209.532 73.9199L207.723 73.0674ZM203.609 78.0395C201.875 79.2589 199.777 79.8887 197.265 79.8887V81.8887C200.128 81.8887 202.643 81.1643 204.76 79.6754L203.609 78.0395ZM197.265 79.8887C194.931 79.8887 192.935 79.284 191.235 78.1004L190.092 79.7414C192.159 81.1815 194.564 81.8887 197.265 81.8887V79.8887ZM191.235 78.1004C189.493 76.8867 188.144 75.3141 187.18 73.3674L185.388 74.2546C186.498 76.4974 188.068 78.3314 190.092 79.7414L191.235 78.1004ZM187.184 73.3748C186.235 71.4185 185.761 69.3357 185.761 67.1143H183.761C183.761 69.6324 184.301 72.0141 185.384 74.2473L187.184 73.3748ZM185.761 67.1143C185.761 64.8059 186.247 62.648 187.217 60.6283L185.414 59.7623C184.311 62.0591 183.761 64.5138 183.761 67.1143H185.761ZM187.214 60.6355C188.2 58.6236 189.572 57.0105 191.333 55.7777L190.186 54.1393C188.138 55.5726 186.547 57.4506 185.418 59.7552L187.214 60.6355ZM191.334 55.7765C193.074 54.5532 195.132 53.9272 197.551 53.9272V51.9272C194.765 51.9272 192.295 52.6555 190.184 54.1405L191.334 55.7765ZM197.551 53.9272C199.949 53.9272 201.977 54.4898 203.677 55.5784L204.755 53.8942C202.689 52.5708 200.274 51.9272 197.551 51.9272V53.9272ZM203.681 55.5811C205.432 56.6902 206.781 58.1733 207.737 60.0469L209.518 59.1377C208.401 56.9488 206.809 55.1946 204.751 53.8915L203.681 55.5811ZM207.741 60.0542C208.719 61.9315 209.215 64.0245 209.215 66.3525H211.215C211.215 63.7294 210.653 61.3156 209.515 59.1304L207.741 60.0542ZM205.851 68.606C205.851 67.2715 205.718 65.7992 205.457 64.193L203.483 64.5131C203.73 66.0384 203.851 67.4013 203.851 68.606H205.851ZM205.457 64.193C205.19 62.5447 204.722 60.9517 204.054 59.4157L202.22 60.2132C202.822 61.5971 203.242 63.0298 203.483 64.5131L205.457 64.193ZM204.059 59.427C203.394 57.8451 202.475 56.5198 201.29 55.4773L199.969 56.9787C200.9 57.7982 201.653 58.8639 202.215 60.2019L204.059 59.427ZM201.299 55.4847C200.031 54.3434 198.437 53.7998 196.599 53.7998V55.7998C198.019 55.7998 199.113 56.2083 199.961 56.9713L201.299 55.4847ZM196.599 53.7998C194.642 53.7998 193.005 54.4186 191.843 55.7652L193.357 57.0717C194.057 56.2601 195.086 55.7998 196.599 55.7998V53.7998ZM191.835 55.7739C190.812 56.988 190.113 58.448 189.722 60.1272L191.67 60.5808C191.998 59.1708 192.568 58.0072 193.364 57.0631L191.835 55.7739ZM189.719 60.1371C189.367 61.7235 189.188 63.2565 189.188 64.7339H191.188C191.188 63.4183 191.347 62.0313 191.672 60.5709L189.719 60.1371ZM189.188 64.7339C189.188 66.0477 189.321 67.5197 189.581 69.1448L191.556 68.8288C191.308 67.2801 191.188 65.9168 191.188 64.7339H189.188ZM189.583 69.1576C189.871 70.8169 190.336 72.422 190.978 73.9716L192.826 73.2061C192.24 71.7935 191.816 70.3306 191.554 68.816L189.583 69.1576ZM190.983 73.9828C191.666 75.578 192.59 76.9265 193.764 78.0064L195.118 76.5346C194.176 75.6679 193.407 74.562 192.821 73.1949L190.983 73.9828ZM193.764 78.0064C195.029 79.1701 196.613 79.7305 198.44 79.7305V77.7305C197.05 77.7305 195.969 77.3175 195.118 76.5346L193.764 78.0064ZM198.44 79.7305C200.479 79.7305 202.176 79.1252 203.33 77.7564L201.801 76.4672C201.136 77.2566 200.082 77.7305 198.44 77.7305V79.7305ZM203.329 77.7578C204.383 76.5121 205.064 75.0158 205.389 73.2987L203.424 72.9269C203.156 74.3413 202.61 75.511 201.802 76.4659L203.329 77.7578ZM205.389 73.2987C205.696 71.6781 205.851 70.1134 205.851 68.606H203.851C203.851 69.9761 203.71 71.416 203.424 72.9269L205.389 73.2987Z" fill="white" mask="url(#path-3-outside-1_1_8)"/>
</g>
<g filter="url(#filter2_ddf_1_8)">
<mask id="path-5-outside-2_1_8" maskUnits="userSpaceOnUse" x="35" y="18" width="30" height="15" fill="black">
<rect fill="white" x="35" y="18" width="30" height="15"/>
<path d="M45.7527 22.8398H45.3621C45.297 22.1628 45.0919 21.6484 44.7469 21.2969C44.4018 20.9453 43.8745 20.7695 43.1648 20.7695H41.4852V29.9102C41.4852 30.3984 41.5177 30.7695 41.5828 31.0234C41.6544 31.2708 41.8107 31.4401 42.0516 31.5312C42.2924 31.6159 42.6635 31.6582 43.1648 31.6582V32H38.0965V31.6582C38.5978 31.6582 38.9656 31.6126 39.2 31.5215C39.4409 31.4303 39.5971 31.2611 39.6688 31.0137C39.7404 30.7598 39.7762 30.3919 39.7762 29.9102V20.7695H38.3309C37.5822 20.7695 37.019 20.916 36.6414 21.209C36.2638 21.4954 36.0457 22.0391 35.9871 22.8398H35.577L35.6941 20.0273H45.6355L45.7527 22.8398ZM55.918 32H51.9336V31.6582C52.4609 31.6582 52.8092 31.5736 52.9785 31.4043C53.1478 31.2285 53.2324 30.877 53.2324 30.3496V27.1758C53.2324 26.7656 53.2096 26.3783 53.1641 26.0137C53.1185 25.6426 53.0046 25.3398 52.8223 25.1055C52.6465 24.8711 52.3503 24.7539 51.9336 24.7539C51.5234 24.7539 51.1458 24.8743 50.8008 25.1152C50.4622 25.3561 50.166 25.6198 49.9121 25.9062V30.3496C49.9121 30.8835 49.987 31.235 50.1367 31.4043C50.2865 31.5736 50.6413 31.6582 51.2012 31.6582V32H47.1973V31.6582C47.7181 31.6582 48.0566 31.5638 48.2129 31.375C48.3691 31.1862 48.4473 30.8444 48.4473 30.3496V21.8047C48.4473 21.4336 48.4115 21.1374 48.3398 20.916C48.2747 20.6882 48.112 20.5742 47.8516 20.5742C47.7409 20.5742 47.6302 20.5872 47.5195 20.6133C47.4154 20.6393 47.3079 20.6719 47.1973 20.7109L47.0605 20.4082L49.502 19.4512H49.9121V25.3594C50.2246 24.8906 50.6022 24.4935 51.0449 24.168C51.4941 23.8359 52.0117 23.6699 52.5977 23.6699C53.112 23.6699 53.5124 23.7871 53.7988 24.0215C54.0918 24.2493 54.3001 24.5488 54.4238 24.9199C54.554 25.291 54.6354 25.6882 54.668 26.1113C54.7005 26.5345 54.7168 26.9382 54.7168 27.3223V30.3496C54.7168 30.8444 54.7884 31.1862 54.9316 31.375C55.0749 31.5638 55.4036 31.6582 55.918 31.6582V32ZM64.052 28.8555L64.3156 29.0508C64.2375 29.6042 64.0487 30.1283 63.7492 30.623C63.4497 31.1113 63.0656 31.5085 62.5969 31.8145C62.1281 32.1204 61.5975 32.2734 61.0051 32.2734C60.2303 32.2734 59.5793 32.0684 59.052 31.6582C58.5311 31.2415 58.1372 30.7109 57.8703 30.0664C57.6034 29.4154 57.4699 28.7383 57.4699 28.0352C57.4699 27.2604 57.6066 26.541 57.8801 25.877C58.1535 25.2129 58.5669 24.679 59.1203 24.2754C59.6737 23.8717 60.3736 23.6699 61.2199 23.6699C62.1965 23.6699 62.955 23.9824 63.4953 24.6074C64.0422 25.2259 64.3156 26.0104 64.3156 26.9609H58.7297C58.7297 27.5404 58.8339 28.1296 59.0422 28.7285C59.2505 29.321 59.5728 29.8158 60.009 30.2129C60.4452 30.61 61.0018 30.8086 61.6789 30.8086C62.2974 30.8086 62.7922 30.623 63.1633 30.252C63.5409 29.8743 63.8371 29.4089 64.052 28.8555ZM58.7297 26.4531H62.4699C62.4699 26.0951 62.4081 25.7533 62.2844 25.4277C62.1672 25.0957 61.9784 24.8255 61.718 24.6172C61.4641 24.4089 61.132 24.3047 60.7219 24.3047C60.1164 24.3047 59.6444 24.526 59.3059 24.9688C58.9673 25.4115 58.7753 25.9062 58.7297 26.4531Z"/>
</mask>
<path d="M45.7527 22.8398H45.3621C45.297 22.1628 45.0919 21.6484 44.7469 21.2969C44.4018 20.9453 43.8745 20.7695 43.1648 20.7695H41.4852V29.9102C41.4852 30.3984 41.5177 30.7695 41.5828 31.0234C41.6544 31.2708 41.8107 31.4401 42.0516 31.5312C42.2924 31.6159 42.6635 31.6582 43.1648 31.6582V32H38.0965V31.6582C38.5978 31.6582 38.9656 31.6126 39.2 31.5215C39.4409 31.4303 39.5971 31.2611 39.6688 31.0137C39.7404 30.7598 39.7762 30.3919 39.7762 29.9102V20.7695H38.3309C37.5822 20.7695 37.019 20.916 36.6414 21.209C36.2638 21.4954 36.0457 22.0391 35.9871 22.8398H35.577L35.6941 20.0273H45.6355L45.7527 22.8398ZM55.918 32H51.9336V31.6582C52.4609 31.6582 52.8092 31.5736 52.9785 31.4043C53.1478 31.2285 53.2324 30.877 53.2324 30.3496V27.1758C53.2324 26.7656 53.2096 26.3783 53.1641 26.0137C53.1185 25.6426 53.0046 25.3398 52.8223 25.1055C52.6465 24.8711 52.3503 24.7539 51.9336 24.7539C51.5234 24.7539 51.1458 24.8743 50.8008 25.1152C50.4622 25.3561 50.166 25.6198 49.9121 25.9062V30.3496C49.9121 30.8835 49.987 31.235 50.1367 31.4043C50.2865 31.5736 50.6413 31.6582 51.2012 31.6582V32H47.1973V31.6582C47.7181 31.6582 48.0566 31.5638 48.2129 31.375C48.3691 31.1862 48.4473 30.8444 48.4473 30.3496V21.8047C48.4473 21.4336 48.4115 21.1374 48.3398 20.916C48.2747 20.6882 48.112 20.5742 47.8516 20.5742C47.7409 20.5742 47.6302 20.5872 47.5195 20.6133C47.4154 20.6393 47.3079 20.6719 47.1973 20.7109L47.0605 20.4082L49.502 19.4512H49.9121V25.3594C50.2246 24.8906 50.6022 24.4935 51.0449 24.168C51.4941 23.8359 52.0117 23.6699 52.5977 23.6699C53.112 23.6699 53.5124 23.7871 53.7988 24.0215C54.0918 24.2493 54.3001 24.5488 54.4238 24.9199C54.554 25.291 54.6354 25.6882 54.668 26.1113C54.7005 26.5345 54.7168 26.9382 54.7168 27.3223V30.3496C54.7168 30.8444 54.7884 31.1862 54.9316 31.375C55.0749 31.5638 55.4036 31.6582 55.918 31.6582V32ZM64.052 28.8555L64.3156 29.0508C64.2375 29.6042 64.0487 30.1283 63.7492 30.623C63.4497 31.1113 63.0656 31.5085 62.5969 31.8145C62.1281 32.1204 61.5975 32.2734 61.0051 32.2734C60.2303 32.2734 59.5793 32.0684 59.052 31.6582C58.5311 31.2415 58.1372 30.7109 57.8703 30.0664C57.6034 29.4154 57.4699 28.7383 57.4699 28.0352C57.4699 27.2604 57.6066 26.541 57.8801 25.877C58.1535 25.2129 58.5669 24.679 59.1203 24.2754C59.6737 23.8717 60.3736 23.6699 61.2199 23.6699C62.1965 23.6699 62.955 23.9824 63.4953 24.6074C64.0422 25.2259 64.3156 26.0104 64.3156 26.9609H58.7297C58.7297 27.5404 58.8339 28.1296 59.0422 28.7285C59.2505 29.321 59.5728 29.8158 60.009 30.2129C60.4452 30.61 61.0018 30.8086 61.6789 30.8086C62.2974 30.8086 62.7922 30.623 63.1633 30.252C63.5409 29.8743 63.8371 29.4089 64.052 28.8555ZM58.7297 26.4531H62.4699C62.4699 26.0951 62.4081 25.7533 62.2844 25.4277C62.1672 25.0957 61.9784 24.8255 61.718 24.6172C61.4641 24.4089 61.132 24.3047 60.7219 24.3047C60.1164 24.3047 59.6444 24.526 59.3059 24.9688C58.9673 25.4115 58.7753 25.9062 58.7297 26.4531Z" fill="white"/>
<path d="M45.7527 22.8398V23.3398H46.274L46.2523 22.819L45.7527 22.8398ZM45.3621 22.8398L44.8644 22.8877L44.9079 23.3398H45.3621V22.8398ZM41.4852 20.7695V20.2695H40.9852V20.7695H41.4852ZM41.5828 31.0234L41.0985 31.1476L41.1004 31.1551L41.1025 31.1625L41.5828 31.0234ZM42.0516 31.5312L41.8746 31.999L41.8858 32.003L42.0516 31.5312ZM43.1648 31.6582H43.6648V31.1582H43.1648V31.6582ZM43.1648 32V32.5H43.6648V32H43.1648ZM38.0965 32H37.5965V32.5H38.0965V32ZM38.0965 31.6582V31.1582H37.5965V31.6582H38.0965ZM39.2 31.5215L39.023 31.0538L39.0188 31.0555L39.2 31.5215ZM39.6688 31.0137L40.149 31.1527L40.15 31.1494L39.6688 31.0137ZM39.7762 20.7695H40.2762V20.2695H39.7762V20.7695ZM36.6414 21.209L36.9436 21.6074L36.9479 21.604L36.6414 21.209ZM35.9871 22.8398V23.3398H36.4519L36.4858 22.8763L35.9871 22.8398ZM35.577 22.8398L35.0774 22.819L35.0557 23.3398H35.577V22.8398ZM35.6941 20.0273V19.5273H35.2145L35.1946 20.0065L35.6941 20.0273ZM45.6355 20.0273L46.1351 20.0065L46.1151 19.5273H45.6355V20.0273ZM45.7527 22.3398H45.3621V23.3398H45.7527V22.3398ZM45.8598 22.792C45.7879 22.0439 45.5547 21.4061 45.1037 20.9466L44.39 21.6471C44.6291 21.8907 44.8061 22.2816 44.8644 22.8877L45.8598 22.792ZM45.1037 20.9466C44.6298 20.4638 43.9492 20.2695 43.1648 20.2695V21.2695C43.7998 21.2695 44.1738 21.4268 44.39 21.6471L45.1037 20.9466ZM43.1648 20.2695H41.4852V21.2695H43.1648V20.2695ZM40.9852 20.7695V29.9102H41.9852V20.7695H40.9852ZM40.9852 29.9102C40.9852 30.4109 41.0176 30.8321 41.0985 31.1476L42.0671 30.8992C42.0178 30.7069 41.9852 30.3859 41.9852 29.9102H40.9852ZM41.1025 31.1625C41.2179 31.561 41.4865 31.8521 41.8746 31.9989L42.2285 31.0636C42.1348 31.0282 42.0909 30.9806 42.0631 30.8844L41.1025 31.1625ZM41.8858 32.003C42.2096 32.1167 42.6506 32.1582 43.1648 32.1582V31.1582C42.6765 31.1582 42.3753 31.115 42.2173 31.0595L41.8858 32.003ZM42.6648 31.6582V32H43.6648V31.6582H42.6648ZM43.1648 31.5H38.0965V32.5H43.1648V31.5ZM38.5965 32V31.6582H37.5965V32H38.5965ZM38.0965 32.1582C38.6106 32.1582 39.0563 32.1138 39.3812 31.9875L39.0188 31.0555C38.875 31.1114 38.5849 31.1582 38.0965 31.1582V32.1582ZM39.3769 31.9891C39.765 31.8423 40.0337 31.5513 40.149 31.1527L39.1885 30.8746C39.1606 30.9709 39.1167 31.0184 39.0231 31.0538L39.3769 31.9891ZM40.15 31.1494C40.2404 30.829 40.2762 30.4067 40.2762 29.9102H39.2762C39.2762 30.3772 39.2404 30.6906 39.1875 30.8779L40.15 31.1494ZM40.2762 29.9102V20.7695H39.2762V29.9102H40.2762ZM39.7762 20.2695H38.3309V21.2695H39.7762V20.2695ZM38.3309 20.2695C37.5301 20.2695 36.8375 20.424 36.3349 20.8139L36.9479 21.604C37.2005 21.4081 37.6342 21.2695 38.3309 21.2695V20.2695ZM36.3392 20.8106C35.7885 21.2285 35.5506 21.9545 35.4884 22.8034L36.4858 22.8763C36.5409 22.1236 36.7392 21.7624 36.9436 21.6073L36.3392 20.8106ZM35.9871 22.3398H35.577V23.3398H35.9871V22.3398ZM36.0765 22.8607L36.1937 20.0482L35.1946 20.0065L35.0774 22.819L36.0765 22.8607ZM35.6941 20.5273H45.6355V19.5273H35.6941V20.5273ZM45.136 20.0482L45.2532 22.8607L46.2523 22.819L46.1351 20.0065L45.136 20.0482ZM55.918 32V32.5H56.418V32H55.918ZM51.9336 32H51.4336V32.5H51.9336V32ZM51.9336 31.6582V31.1582H51.4336V31.6582H51.9336ZM52.9785 31.4043L53.3321 31.7579L53.3387 31.7511L52.9785 31.4043ZM53.1641 26.0137L52.6678 26.0746L52.6679 26.0757L53.1641 26.0137ZM52.8223 25.1055L52.4222 25.4055L52.4276 25.4124L52.8223 25.1055ZM50.8008 25.1152L50.5146 24.7052L50.5109 24.7078L50.8008 25.1152ZM49.9121 25.9062L49.5379 25.5746L49.4121 25.7166V25.9062H49.9121ZM51.2012 31.6582H51.7012V31.1582H51.2012V31.6582ZM51.2012 32V32.5H51.7012V32H51.2012ZM47.1973 32H46.6973V32.5H47.1973V32ZM47.1973 31.6582V31.1582H46.6973V31.6582H47.1973ZM48.2129 31.375L47.8277 31.0562L48.2129 31.375ZM48.3398 20.916L47.8591 21.0534L47.8615 21.0617L47.8641 21.0699L48.3398 20.916ZM47.5195 20.6133L47.405 20.1265L47.3983 20.1282L47.5195 20.6133ZM47.1973 20.7109L46.7416 20.9167L46.9306 21.3353L47.3637 21.1824L47.1973 20.7109ZM47.0605 20.4082L46.8781 19.9427L46.3884 20.1346L46.6049 20.614L47.0605 20.4082ZM49.502 19.4512V18.9512H49.4075L49.3195 18.9857L49.502 19.4512ZM49.9121 19.4512H50.4121V18.9512H49.9121V19.4512ZM49.9121 25.3594H49.4121V27.0108L50.3281 25.6367L49.9121 25.3594ZM51.0449 24.168L51.3411 24.5708L51.3421 24.5701L51.0449 24.168ZM53.7988 24.0215L53.4821 24.4086L53.4919 24.4162L53.7988 24.0215ZM54.4238 24.9199L53.9494 25.0781L53.952 25.0855L54.4238 24.9199ZM55.918 31.6582H56.418V31.1582H55.918V31.6582ZM55.918 31.5H51.9336V32.5H55.918V31.5ZM52.4336 32V31.6582H51.4336V32H52.4336ZM51.9336 32.1582C52.2203 32.1582 52.4821 32.1356 52.7084 32.0806C52.9304 32.0266 53.158 31.932 53.3321 31.7579L52.625 31.0507C52.6298 31.0459 52.5985 31.0782 52.4723 31.1089C52.3502 31.1385 52.1743 31.1582 51.9336 31.1582V32.1582ZM53.3387 31.7511C53.5078 31.5755 53.6013 31.3492 53.6551 31.1258C53.7098 30.8986 53.7324 30.6365 53.7324 30.3496H52.7324C52.7324 30.5901 52.7128 30.7674 52.6828 30.8918C52.6681 30.9529 52.6524 30.995 52.6391 31.0226C52.6259 31.0499 52.6174 31.0585 52.6184 31.0575L53.3387 31.7511ZM53.7324 30.3496V27.1758H52.7324V30.3496H53.7324ZM53.7324 27.1758C53.7324 26.7472 53.7086 26.339 53.6602 25.9517L52.6679 26.0757C52.7106 26.4175 52.7324 26.784 52.7324 27.1758H53.7324ZM53.6603 25.9527C53.6066 25.5149 53.4674 25.1205 53.2169 24.7985L52.4276 25.4124C52.5417 25.5592 52.6304 25.7702 52.6678 26.0746L53.6603 25.9527ZM53.2223 24.8055C52.9166 24.3979 52.4373 24.2539 51.9336 24.2539V25.2539C52.2632 25.2539 52.3764 25.3443 52.4223 25.4055L53.2223 24.8055ZM51.9336 24.2539C51.4183 24.2539 50.9412 24.4074 50.5146 24.7053L51.087 25.5252C51.3504 25.3413 51.6286 25.2539 51.9336 25.2539V24.2539ZM50.5109 24.7078C50.1441 24.9688 49.819 25.2575 49.5379 25.5746L50.2863 26.2379C50.513 25.9821 50.7804 25.7434 51.0907 25.5226L50.5109 24.7078ZM49.4121 25.9062V30.3496H50.4121V25.9062H49.4121ZM49.4121 30.3496C49.4121 30.6364 49.4319 30.8956 49.4792 31.1178C49.525 31.333 49.606 31.559 49.7622 31.7356L50.5112 31.073C50.5177 31.0803 50.4863 31.0459 50.4573 30.9095C50.4297 30.7801 50.4121 30.5967 50.4121 30.3496H49.4121ZM49.7622 31.7356C49.9355 31.9315 50.1779 32.0283 50.3991 32.0811C50.629 32.1359 50.9006 32.1582 51.2012 32.1582V31.1582C50.9419 31.1582 50.7561 31.1382 50.6311 31.1084C50.4975 31.0765 50.4876 31.0464 50.5112 31.073L49.7622 31.7356ZM50.7012 31.6582V32H51.7012V31.6582H50.7012ZM51.2012 31.5H47.1973V32.5H51.2012V31.5ZM47.6973 32V31.6582H46.6973V32H47.6973ZM47.1973 32.1582C47.4835 32.1582 47.7476 32.1328 47.9761 32.069C48.2027 32.0058 48.4323 31.8942 48.5981 31.6938L47.8277 31.0562C47.8373 31.0446 47.8194 31.0746 47.7075 31.1058C47.5975 31.1365 47.4319 31.1582 47.1973 31.1582V32.1582ZM48.5981 31.6938C48.8739 31.3605 48.9473 30.8609 48.9473 30.3496H47.9473C47.9473 30.8279 47.8644 31.0119 47.8277 31.0562L48.5981 31.6938ZM48.9473 30.3496V21.8047H47.9473V30.3496H48.9473ZM48.9473 21.8047C48.9473 21.4085 48.9099 21.0537 48.8156 20.7621L47.8641 21.0699C47.913 21.221 47.9473 21.4587 47.9473 21.8047H48.9473ZM48.8206 20.7787C48.7629 20.5765 48.6483 20.3849 48.4557 20.2501C48.2676 20.1184 48.0528 20.0742 47.8516 20.0742V21.0742C47.8808 21.0742 47.8951 21.0775 47.8986 21.0784C47.9001 21.0788 47.8989 21.0786 47.8957 21.0771C47.8924 21.0756 47.8877 21.0731 47.8822 21.0693C47.8767 21.0654 47.8715 21.061 47.8668 21.0561C47.8621 21.0513 47.8588 21.047 47.8567 21.0438C47.8525 21.0375 47.8549 21.0387 47.8591 21.0534L48.8206 20.7787ZM47.8516 20.0742C47.7013 20.0742 47.5522 20.0919 47.405 20.1266L47.6341 21.1C47.7082 21.0825 47.7805 21.0742 47.8516 21.0742V20.0742ZM47.3983 20.1282C47.2775 20.1584 47.155 20.1956 47.0309 20.2394L47.3637 21.1824C47.4609 21.1481 47.5532 21.1202 47.6408 21.0984L47.3983 20.1282ZM47.653 20.5051L47.5162 20.2024L46.6049 20.614L46.7416 20.9167L47.653 20.5051ZM47.243 20.8737L49.6844 19.9167L49.3195 18.9857L46.8781 19.9427L47.243 20.8737ZM49.502 19.9512H49.9121V18.9512H49.502V19.9512ZM49.4121 19.4512V25.3594H50.4121V19.4512H49.4121ZM50.3281 25.6367C50.6091 25.2152 50.9465 24.8609 51.3411 24.5708L50.7487 23.7651C50.2579 24.1261 49.8401 24.566 49.4961 25.082L50.3281 25.6367ZM51.3421 24.5701C51.7009 24.3049 52.1131 24.1699 52.5977 24.1699V23.1699C51.9103 23.1699 51.2874 23.367 50.7477 23.7659L51.3421 24.5701ZM52.5977 24.1699C53.041 24.1699 53.3143 24.2711 53.4822 24.4085L54.1154 23.6345C53.7104 23.3031 53.1829 23.1699 52.5977 23.1699V24.1699ZM53.4919 24.4162C53.7026 24.5801 53.8552 24.7953 53.9495 25.078L54.8982 24.7618C54.745 24.3024 54.481 23.9186 54.1058 23.6268L53.4919 24.4162ZM53.952 25.0855C54.0667 25.4124 54.14 25.7665 54.1694 26.1497L55.1665 26.073C55.1309 25.6098 55.0413 25.1696 54.8956 24.7544L53.952 25.0855ZM54.1694 26.1497C54.2011 26.5614 54.2168 26.9522 54.2168 27.3223H55.2168C55.2168 26.9241 55.1999 26.5076 55.1665 26.073L54.1694 26.1497ZM54.2168 27.3223V30.3496H55.2168V27.3223H54.2168ZM54.2168 30.3496C54.2168 30.8562 54.2829 31.3471 54.5333 31.6772L55.33 31.0728C55.294 31.0253 55.2168 30.8326 55.2168 30.3496H54.2168ZM54.5333 31.6772C54.6934 31.8883 54.9239 32.0037 55.1477 32.068C55.3734 32.1328 55.6351 32.1582 55.918 32.1582V31.1582C55.6865 31.1582 55.5267 31.1364 55.4236 31.1068C55.3186 31.0767 55.3131 31.0505 55.33 31.0728L54.5333 31.6772ZM55.418 31.6582V32H56.418V31.6582H55.418ZM64.052 28.8555L64.3496 28.4537L63.823 28.0636L63.5859 28.6745L64.052 28.8555ZM64.3156 29.0508L64.8107 29.1207L64.8523 28.8261L64.6132 28.649L64.3156 29.0508ZM63.7492 30.623L64.1754 30.8845L64.177 30.8819L63.7492 30.623ZM59.052 31.6582L58.7396 32.0487L58.745 32.0529L59.052 31.6582ZM57.8703 30.0664L57.4077 30.2561L57.4084 30.2577L57.8703 30.0664ZM59.1203 24.2754L58.8257 23.8714L59.1203 24.2754ZM63.4953 24.6074L63.1171 24.9345L63.1207 24.9386L63.4953 24.6074ZM64.3156 26.9609V27.4609H64.8156V26.9609H64.3156ZM58.7297 26.9609V26.4609H58.2297V26.9609H58.7297ZM59.0422 28.7285L58.5699 28.8928L58.5705 28.8944L59.0422 28.7285ZM58.7297 26.4531L58.2314 26.4116L58.1863 26.9531H58.7297V26.4531ZM62.4699 26.4531V26.9531H62.9699V26.4531H62.4699ZM62.2844 25.4277L61.8127 25.5942L61.817 25.6053L62.2844 25.4277ZM61.718 24.6172L61.4008 25.0038L61.4056 25.0076L61.718 24.6172ZM59.3059 24.9688L58.9087 24.665L59.3059 24.9688ZM63.7543 29.2572L64.018 29.4526L64.6132 28.649L64.3496 28.4537L63.7543 29.2572ZM63.8205 28.9809C63.7522 29.465 63.5872 29.9251 63.3215 30.3641L64.177 30.8819C64.5102 30.3314 64.7228 29.7433 64.8107 29.1207L63.8205 28.9809ZM63.323 30.3616C63.0613 30.7883 62.7289 31.1312 62.3236 31.3958L62.8702 32.2331C63.4024 31.8857 63.8382 31.4343 64.1754 30.8845L63.323 30.3616ZM62.3236 31.3958C61.9409 31.6455 61.5064 31.7734 61.0051 31.7734V32.7734C61.6886 32.7734 62.3153 32.5954 62.8702 32.2331L62.3236 31.3958ZM61.0051 31.7734C60.323 31.7734 59.7849 31.5949 59.3589 31.2635L58.745 32.0529C59.3737 32.5419 60.1377 32.7734 61.0051 32.7734V31.7734ZM59.3643 31.2678C58.9124 30.9062 58.5685 30.4454 58.3323 29.8751L57.4084 30.2577C57.706 30.9765 58.1498 31.5768 58.7396 32.0486L59.3643 31.2678ZM58.3329 29.8767C58.0907 29.2858 57.9699 28.6732 57.9699 28.0352H56.9699C56.9699 28.8034 57.1161 29.5449 57.4077 30.2561L58.3329 29.8767ZM57.9699 28.0352C57.9699 27.3205 58.0958 26.6664 58.3424 26.0673L57.4177 25.6866C57.1175 26.4157 56.9699 27.2003 56.9699 28.0352H57.9699ZM58.3424 26.0673C58.5825 25.4842 58.9398 25.0259 59.415 24.6793L58.8257 23.8714C58.1941 24.3321 57.7245 24.9415 57.4177 25.6866L58.3424 26.0673ZM59.415 24.6793C59.8644 24.3516 60.4541 24.1699 61.2199 24.1699V23.1699C60.293 23.1699 59.483 23.3919 58.8257 23.8714L59.415 24.6793ZM61.2199 24.1699C62.0804 24.1699 62.6892 24.4395 63.1171 24.9344L63.8735 24.2804C63.2207 23.5253 62.3126 23.1699 61.2199 23.1699V24.1699ZM63.1207 24.9386C63.5747 25.452 63.8156 26.1128 63.8156 26.9609H64.8156C64.8156 25.9081 64.5097 24.9998 63.8699 24.2762L63.1207 24.9386ZM64.3156 26.4609H58.7297V27.4609H64.3156V26.4609ZM58.2297 26.9609C58.2297 27.6013 58.345 28.246 58.5699 28.8928L59.5144 28.5643C59.3227 28.0131 59.2297 27.4794 59.2297 26.9609H58.2297ZM58.5705 28.8944C58.8045 29.5597 59.171 30.1262 59.6724 30.5826L60.3456 29.8432C59.9746 29.5054 59.6966 29.0822 59.5139 28.5626L58.5705 28.8944ZM59.6724 30.5826C60.2142 31.0759 60.897 31.3086 61.6789 31.3086V30.3086C61.1067 30.3086 60.6761 30.1441 60.3456 29.8432L59.6724 30.5826ZM61.6789 31.3086C62.4045 31.3086 63.0354 31.087 63.5168 30.6055L62.8097 29.8984C62.549 30.1591 62.1903 30.3086 61.6789 30.3086V31.3086ZM63.5168 30.6055C63.9488 30.1736 64.2809 29.6473 64.5181 29.0364L63.5859 28.6745C63.3933 29.1704 63.133 29.5751 62.8097 29.8984L63.5168 30.6055ZM58.7297 26.9531H62.4699V25.9531H58.7297V26.9531ZM62.9699 26.4531C62.9699 26.0361 62.8976 25.634 62.7518 25.2501L61.817 25.6053C61.9185 25.8725 61.9699 26.154 61.9699 26.4531H62.9699ZM62.7559 25.2613C62.6094 24.8464 62.3678 24.4967 62.0303 24.2268L61.4056 25.0076C61.589 25.1543 61.725 25.345 61.8129 25.5941L62.7559 25.2613ZM62.0351 24.2307C61.6714 23.9322 61.2181 23.8047 60.7219 23.8047V24.8047C61.0459 24.8047 61.2568 24.8855 61.4008 25.0037L62.0351 24.2307ZM60.7219 23.8047C59.9762 23.8047 59.3509 24.0868 58.9087 24.665L59.703 25.2725C59.9379 24.9653 60.2566 24.8047 60.7219 24.8047V23.8047ZM58.9087 24.665C58.513 25.1824 58.2851 25.7679 58.2314 26.4116L59.228 26.4946C59.2655 26.0446 59.4216 25.6405 59.703 25.2725L58.9087 24.665Z" fill="white" mask="url(#path-5-outside-2_1_8)"/>
</g>
<defs>
<filter id="filter0_f_1_8" x="0" y="0" width="244" height="100" filterUnits="userSpaceOnUse" color-interpolation-filters="sRGB">
<feFlood flood-opacity="0" result="BackgroundImageFix"/>
<feBlend mode="normal" in="SourceGraphic" in2="BackgroundImageFix" result="shape"/>
<feGaussianBlur stdDeviation="2" result="effect1_foregroundBlur_1_8"/>
</filter>
<filter id="filter1_ddf_1_8" x="29.8171" y="38.7163" width="184.398" height="50.2358" filterUnits="userSpaceOnUse" color-interpolation-filters="sRGB">
<feFlood flood-opacity="0" result="BackgroundImageFix"/>
<feColorMatrix in="SourceAlpha" type="matrix" values="0 0 0 0 0 0 0 0 0 0 0 0 0 0 0 0 0 0 127 0" result="hardAlpha"/>
<feOffset dy="4"/>
<feGaussianBlur stdDeviation="2"/>
<feComposite in2="hardAlpha" operator="out"/>
<feColorMatrix type="matrix" values="0 0 0 0 0 0 0 0 0 0 0 0 0 0 0 0 0 0 0.25 0"/>
<feBlend mode="normal" in2="BackgroundImageFix" result="effect1_dropShadow_1_8"/>
<feColorMatrix in="SourceAlpha" type="matrix" values="0 0 0 0 0 0 0 0 0 0 0 0 0 0 0 0 0 0 127 0" result="hardAlpha"/>
<feOffset dy="4"/>
<feGaussianBlur stdDeviation="2"/>
<feComposite in2="hardAlpha" operator="out"/>
<feColorMatrix type="matrix" values="0 0 0 0 0 0 0 0 0 0 0 0 0 0 0 0 0 0 0.25 0"/>
<feBlend mode="normal" in2="effect1_dropShadow_1_8" result="effect2_dropShadow_1_8"/>
<feBlend mode="normal" in="SourceGraphic" in2="effect2_dropShadow_1_8" result="shape"/>
<feGaussianBlur stdDeviation="0.25" result="effect3_foregroundBlur_1_8"/>
</filter>
<filter id="filter2_ddf_1_8" x="31.577" y="18.9512" width="36.7387" height="21.3223" filterUnits="userSpaceOnUse" color-interpolation-filters="sRGB">
<feFlood flood-opacity="0" result="BackgroundImageFix"/>
<feColorMatrix in="SourceAlpha" type="matrix" values="0 0 0 0 0 0 0 0 0 0 0 0 0 0 0 0 0 0 127 0" result="hardAlpha"/>
<feOffset dy="4"/>
<feGaussianBlur stdDeviation="2"/>
<feComposite in2="hardAlpha" operator="out"/>
<feColorMatrix type="matrix" values="0 0 0 0 0 0 0 0 0 0 0 0 0 0 0 0 0 0 0.25 0"/>
<feBlend mode="normal" in2="BackgroundImageFix" result="effect1_dropShadow_1_8"/>
<feColorMatrix in="SourceAlpha" type="matrix" values="0 0 0 0 0 0 0 0 0 0 0 0 0 0 0 0 0 0 127 0" result="hardAlpha"/>
<feOffset dy="4"/>
<feGaussianBlur stdDeviation="2"/>
<feComposite in2="hardAlpha" operator="out"/>
<feColorMatrix type="matrix" values="0 0 0 0 0 0 0 0 0 0 0 0 0 0 0 0 0 0 0.25 0"/>
<feBlend mode="normal" in2="effect1_dropShadow_1_8" result="effect2_dropShadow_1_8"/>
<feBlend mode="normal" in="SourceGraphic" in2="effect2_dropShadow_1_8" result="shape"/>
<feGaussianBlur stdDeviation="0.25" result="effect3_foregroundBlur_1_8"/>
</filter>
<linearGradient id="paint0_linear_1_8" x1="122" y1="1" x2="122" y2="101" gradientUnits="userSpaceOnUse">
<stop stop-color="#E2A403"/>
<stop offset="1" stop-color="#240B00"/>
</linearGradient>
<linearGradient id="paint1_linear_1_8" x1="122" y1="4" x2="122" y2="96" gradientUnits="userSpaceOnUse">
<stop stop-color="#402C15"/>
<stop offset="0.608696" stop-color="#684925"/>
<stop offset="1" stop-color="#896133" stop-opacity="0.7"/>
</linearGradient>
</defs>
</svg>
